<?xml version="1.0" encoding="utf-8"?>
<!-- Generator: Adobe Illustrator 19.0.0, SVG Export Plug-In . SVG Version: 6.00 Build 0)  -->
<svg version="1.1" xmlns="http://www.w3.org/2000/svg" xmlns:xlink="http://www.w3.org/1999/xlink" x="0px" y="0px"
	 viewBox="0 0 174 216" style="enable-background:new 0 0 174 216;" xml:space="preserve">
<style type="text/css">
	.st0{fill:#0C0C4C;}
	.st1{fill:#C9BA05;}
	.st2{fill:none;stroke:#C9BA05;stroke-miterlimit:10;}
	.st3{font-family:'NumptyDEMO-Regular';}
	.st4{font-size:26px;}
</style>
<g id="Layer_1">
	<path id="XMLID_24_" class="st0" d="M26.8,154.9c0-0.4,0-0.7,0-1.1c0-24.9,0-49.7,0-74.6c0-0.8,0.2-1.2,0.8-1.7
		c5.4-4.3,10.7-8.6,16.1-12.9c8.9-7.1,17.8-14.2,26.7-21.3c5-4,10.1-8,15.1-12c0.5-0.4,0.7-0.4,1.2,0c3.4,2.8,6.9,5.5,10.4,8.3
		c9,7.2,18.1,14.4,27.1,21.5c6.9,5.5,13.8,11,20.7,16.4c0.4,0.4,0.6,0.7,0.6,1.3c0,25,0,50.1,0,75.1c0,0.3,0,0.5,0,0.8
		c-13.8,0-27.6,0-41.4,0c0-15.7,0-31.4,0-47.1c-12,0-23.8,0-35.7,0c0,15.7,0,31.4,0,47.1C54.5,154.9,40.7,154.9,26.8,154.9z"/>
	<path id="XMLID_23_" class="st1" d="M157.5,77.5c-23.9-19-47.6-37.8-71.4-56.7C62.5,39.7,38.7,58.5,14.9,77.5
		c0-0.4-0.1-0.7-0.1-0.9c0-1.2,0.2-2.5,0-3.7c-0.4-2.3,0.6-3.7,2.4-4.8c1.6-1.1,3.1-2.3,4.6-3.5c1.4-1.1,2.8-2.3,4.3-3.4
		c0.5-0.4,0.7-0.8,0.7-1.5c0-11.1,0-22.1,0-33.2c0-0.4,0-0.8,0-1.2c7.9,0,15.8,0,23.7,0c0,5.4,0,10.8,0,16.4
		c12-9.5,23.8-18.9,35.7-28.3c1,0.8,1.9,1.5,2.9,2.3c2.7,2.2,5.5,4.4,8.2,6.6c9,7.1,18,14.3,26.9,21.4c8.9,7.1,17.9,14.2,26.8,21.3
		c2,1.6,4,3.1,6,4.7c0.2,0.2,0.5,0.4,0.5,0.7C157.5,72.6,157.5,74.9,157.5,77.5z"/>
</g>
<g id="Layer_2">
	<g id="XMLID_1_">
		<path id="XMLID_8_" class="st0" d="M63.3,175l2.4-16.8c0.1-1.4,8.6-1.1,7.6-0.2c0,0.1,0,0.2,0,0.2c0,0.4-0.2,2.3-0.2,2.7
			c-0.1,1.4-0.9,1.5-2.2,1.5c-0.3,0-0.6-0.1-1-0.1c-0.6,0-1.2,0.2-1.8,0.3c0,0,0,0.1,0,0.1s0,0.1,0,0.1c0,0.3,0.1,1.6,0.1,1.8
			c0.1,0,0.4,0.1,0.4,0.1c0.2,0,1.1,0,1.3,0.1c0.3,0,0.6,0.2,0.7,0.5c0,0.1,0,0.4,0,0.4c0,0.1,0,0.4,0,0.4c0,0.1-0.1,1.3-0.2,1.6
			c-0.1,0.8-0.3,0.7-1,1L68,169l0.4,5.5c0,0,0,0.1,0,0.1c0,0.3-0.1,0.4-0.3,0.6c-0.1,0-0.6,0.1-0.8,0.1c-0.4,0.1-0.9,0.1-1.4,0.1
			c-0.6,0-1.1-0.1-1.8-0.1C63.8,175.2,63.6,175.2,63.3,175z"/>
		<path id="XMLID_10_" class="st0" d="M77.3,172.2l-0.2,0.1c0,0-0.1,0.3-0.1,0.4c-0.1,0.6-0.1,2.4-0.6,2.7c-0.5,0.3-0.7,0.2-1.2,0.3
			c0,0-0.6,0-0.8,0c-0.1,0-0.7,0-0.9,0c0,0-0.2-0.1-0.2-0.1c-0.1,0-0.7,0-0.8,0c-0.1-0.1-0.2-0.3-0.2-0.4c0-6.7,0.3-17.2,4.6-17.7
			h0.1c0.5,0,1.1-0.2,1.6-0.2c0.2,0,0.4,0.1,0.6,0.1h0c0.1,0,0.3-0.1,0.3-0.1c0,0,0.1,0,0.1,0c0.3,0,0.7,0.2,1,0.2
			c0.7,0.1,1.1,0.3,1.6,0.9c0.1,0.1,0.3,0.6,0.4,0.6c1.3,2.4,1.2,5.1,1.2,7.7c0,0.3,0,1.2,0,1.3l-0.4,6.8c0,0.3-0.1,0.9-0.6,0.9
			c-0.6,0-3.2,0.3-3.7-0.3l-0.1-3.2C78.9,172.3,77.7,172.2,77.3,172.2z M77.6,163.3c0,0.1-0.2,0.9-0.2,1.1v0.1
			c0,0.3-0.2,2.8-0.2,3.1c0,0.1,0,0.7,0,0.8c0.3,0,1-0.1,1.4-0.1c0.1,0,0.6,0,0.6,0v-4.9c0,0-0.1-0.3-0.1-0.4
			c-0.1-0.2-0.5-0.5-0.6-0.5C78.1,162.5,77.6,163.1,77.6,163.3z"/>
		<path id="XMLID_13_" class="st0" d="M85.6,174.7c-0.7-0.4-0.8-1.3-0.8-2.1c0-0.1,0-0.1,0-0.1c0,0,0-0.1,0-0.1c0-0.8,0-2.3,1.1-2.3
			c0.3,0,1.4,0,1.6,0c1.6,0.2,2.7,0.2,3.2,0.2c0.3,0,1.4,0.4,1.4-0.3c0-1.9-4.4-1.8-5.9-3.5c-0.9-0.9-1-2.7-1-3.8
			c0-1.8,1.1-3.7,2.7-4.6c1.4-0.8,3.7-0.9,5.1-0.9c0.9,0,2,0.1,2.8,0.1c0.4,0,1,0.4,0.9,0.9c0.3,1.3,0.2,1.9-0.2,3.9
			c-0.4,2-5.8-0.6-5.7,0.8c0,0.7,1.5,1,1.6,1.2c-0.2-0.1,1.6,0.8,2.7,1.6c0.1,0,1.4,1.2,1.8,1.8c0.3,0.6,0.5,1.3,0.5,2
			c0,6.6-5.4,6.1-10.5,5.6c-0.3,0-0.7-0.1-1-0.1L85.6,174.7z"/>
		<path id="XMLID_15_" class="st0" d="M100.7,174.5c0-0.2,0.1-0.3,0.1-0.6l0.5-8c0-0.6,0.1-1.7,0.1-2.4c0-0.1,0-0.3,0-0.4
			c-0.1-0.1-0.3-0.1-0.4-0.1c0,0-0.1,0.1-0.1,0.1c-0.2,0-0.7-0.1-0.9,0.1h-1.4c-0.2,0-0.4-0.3-0.4-0.4c0-1.7,0.1-2.9,0.3-4.6
			c0-0.3,0.2-0.5,0.4-0.7c0.3-0.2,0.7-0.1,1-0.1l7.8,0.2c0.6,0.1,1.7-0.2,1.7,0.7c0,1.4-1,3-1,4.3c-0.1,0.3-0.5,0.6-0.8,0.7
			c-0.9,0-0.7,0.1-1.5,0c0,0-0.1,0.1-0.1,0.1c0.1,1.8-1.5,7-1.5,9.8c0,0.4-0.3,1.3-0.5,1.7c-0.2,0.5-1,0.3-1.5,0.3
			c-0.1,0-0.3,0-0.3,0c-0.2,0-1-0.1-1.1-0.1C100.8,174.8,100.7,174.8,100.7,174.5z"/>
		<line id="XMLID_2_" class="st2" x1="52.2" y1="158.2" x2="64.2" y2="159.1"/>
		<line id="XMLID_7_" class="st2" x1="49.1" y1="159.9" x2="62" y2="160.9"/>
		<line id="XMLID_17_" class="st2" x1="49.8" y1="163" x2="63.8" y2="164.1"/>
		<line id="XMLID_20_" class="st2" x1="110.2" y1="165.2" x2="122.2" y2="166.1"/>
		<line id="XMLID_19_" class="st2" x1="107.1" y1="166.9" x2="120" y2="167.9"/>
		<line id="XMLID_18_" class="st2" x1="107.8" y1="170" x2="121.8" y2="171.1"/>
	</g>
</g>
<g id="Layer_3">
	<text id="XMLID_3_" transform="matrix(1 0 0 1 26.7877 194.9517)" class="st0 st3 st4">ADDRESSES</text>
</g>
</svg>
